<?xml version='1.0' encoding='us-ascii'?>
<svg width="1270.926996097583" height="240" version="1.1" xmlns="http://www.w3.org/2000/svg"><style>text {
          font-family: Arial, Helvetica, sans-serif;
          font-weight: Thin;
          }
    </style><rect width="1000" height="120" x="270.92699609758307" y="0" style="fill:#f9fc69;stroke-width:1;stroke:black" /><rect width="1000" height="120" x="0.0" y="120" style="fill:#f9fc69;stroke-width:1;stroke:black" /><line x1="750.3361253452792" y1="0" x2="750.3361253452792" y2="240" style="stroke:grey;stroke-width:1" /><g transform="translate(0 20)"><text x="278.92699609758307" y="70" fill="black" font-size="24">C</text><text x="764.25" y="53" fill="black" font-size="16">&#960;</text><line x1="768.25" y1="100" x2="768.25" y2="60" style="stroke:black;stroke-width:1" /><text x="1232.926996097583" y="68" fill="black" font-size="16">x</text><line x1="321.0" y1="100" x2="321.0" y2="30" style="stroke:black;stroke-width:1" /><text x="317" y="20" fill="black" font-size="18">1</text><line x1="340.0" y1="100" x2="340.0" y2="80" style="stroke:black;stroke-width:1" /><line x1="358.25" y1="100" x2="358.25" y2="70" style="stroke:black;stroke-width:1" /><text x="352.1804127399856" y="67" fill="black" font-size="12">1.1</text><line x1="375.5" y1="100" x2="375.5" y2="80" style="stroke:black;stroke-width:1" /><line x1="392.25" y1="100" x2="392.25" y2="70" style="stroke:black;stroke-width:1" /><text x="386.1901175404454" y="67" fill="black" font-size="12">1.2</text><line x1="408.25" y1="100" x2="408.25" y2="80" style="stroke:black;stroke-width:1" /><line x1="423.5" y1="100" x2="423.5" y2="70" style="stroke:black;stroke-width:1" /><text x="417.4760131737362" y="67" fill="black" font-size="12">1.3</text><line x1="438.25" y1="100" x2="438.25" y2="80" style="stroke:black;stroke-width:1" /><line x1="452.5" y1="100" x2="452.5" y2="70" style="stroke:black;stroke-width:1" /><text x="446.4422282079973" y="67" fill="black" font-size="12">1.4</text><line x1="466.25" y1="100" x2="466.25" y2="80" style="stroke:black;stroke-width:1" /><line x1="479.5" y1="100" x2="479.5" y2="50" style="stroke:black;stroke-width:1" /><text x="473.40912924769617" y="45" fill="black" font-size="14">1.5</text><line x1="492.25" y1="100" x2="492.25" y2="80" style="stroke:black;stroke-width:1" /><line x1="504.75" y1="100" x2="504.75" y2="70" style="stroke:black;stroke-width:1" /><text x="498.6349804879154" y="67" fill="black" font-size="12">1.6</text><line x1="516.75" y1="100" x2="516.75" y2="80" style="stroke:black;stroke-width:1" /><line x1="528.25" y1="100" x2="528.25" y2="70" style="stroke:black;stroke-width:1" /><text x="522.3310253380296" y="67" fill="black" font-size="12">1.7</text><line x1="539.75" y1="100" x2="539.75" y2="80" style="stroke:black;stroke-width:1" /><line x1="550.75" y1="100" x2="550.75" y2="70" style="stroke:black;stroke-width:1" /><text x="544.6722506905585" y="67" fill="black" font-size="12">1.8</text><line x1="561.5" y1="100" x2="561.5" y2="80" style="stroke:black;stroke-width:1" /><line x1="571.75" y1="100" x2="571.75" y2="70" style="stroke:black;stroke-width:1" /><text x="565.8052369551291" y="67" fill="black" font-size="12">1.9</text><line x1="582.0" y1="100" x2="582.0" y2="80" style="stroke:black;stroke-width:1" /><line x1="591.75" y1="100" x2="591.75" y2="40" style="stroke:black;stroke-width:1" /><text x="588" y="34" fill="black" font-size="18">2</text><line x1="601.5" y1="100" x2="601.5" y2="80" style="stroke:black;stroke-width:1" /><line x1="611.0" y1="100" x2="611.0" y2="70" style="stroke:black;stroke-width:1" /><line x1="620.0" y1="100" x2="620.0" y2="80" style="stroke:black;stroke-width:1" /><line x1="629.0" y1="100" x2="629.0" y2="70" style="stroke:black;stroke-width:1" /><line x1="638.0" y1="100" x2="638.0" y2="80" style="stroke:black;stroke-width:1" /><line x1="646.5" y1="100" x2="646.5" y2="70" style="stroke:black;stroke-width:1" /><line x1="655.0" y1="100" x2="655.0" y2="80" style="stroke:black;stroke-width:1" /><line x1="663.0" y1="100" x2="663.0" y2="70" style="stroke:black;stroke-width:1" /><line x1="671.25" y1="100" x2="671.25" y2="80" style="stroke:black;stroke-width:1" /><line x1="679.0" y1="100" x2="679.0" y2="50" style="stroke:black;stroke-width:1" /><text x="673.073003902417" y="45" fill="black" font-size="14">2.5</text><line x1="686.75" y1="100" x2="686.75" y2="80" style="stroke:black;stroke-width:1" /><line x1="694.5" y1="100" x2="694.5" y2="70" style="stroke:black;stroke-width:1" /><line x1="701.75" y1="100" x2="701.75" y2="80" style="stroke:black;stroke-width:1" /><line x1="709.25" y1="100" x2="709.25" y2="70" style="stroke:black;stroke-width:1" /><line x1="716.25" y1="100" x2="716.25" y2="80" style="stroke:black;stroke-width:1" /><line x1="723.25" y1="100" x2="723.25" y2="70" style="stroke:black;stroke-width:1" /><line x1="730.25" y1="100" x2="730.25" y2="80" style="stroke:black;stroke-width:1" /><line x1="737.0" y1="100" x2="737.0" y2="70" style="stroke:black;stroke-width:1" /><line x1="743.75" y1="100" x2="743.75" y2="80" style="stroke:black;stroke-width:1" /><line x1="750.25" y1="100" x2="750.25" y2="40" style="stroke:black;stroke-width:1" /><text x="746" y="34" fill="black" font-size="18">3</text><line x1="756.75" y1="100" x2="756.75" y2="80" style="stroke:black;stroke-width:1" /><line x1="763.25" y1="100" x2="763.25" y2="70" style="stroke:black;stroke-width:1" /><line x1="769.5" y1="100" x2="769.5" y2="80" style="stroke:black;stroke-width:1" /><line x1="775.5" y1="100" x2="775.5" y2="70" style="stroke:black;stroke-width:1" /><line x1="781.5" y1="100" x2="781.5" y2="80" style="stroke:black;stroke-width:1" /><line x1="787.5" y1="100" x2="787.5" y2="70" style="stroke:black;stroke-width:1" /><line x1="793.5" y1="100" x2="793.5" y2="80" style="stroke:black;stroke-width:1" /><line x1="799.25" y1="100" x2="799.25" y2="70" style="stroke:black;stroke-width:1" /><line x1="805.0" y1="100" x2="805.0" y2="80" style="stroke:black;stroke-width:1" /><line x1="810.5" y1="100" x2="810.5" y2="50" style="stroke:black;stroke-width:1" /><text x="804.5882360128312" y="45" fill="black" font-size="14">3.5</text><line x1="816.25" y1="100" x2="816.25" y2="80" style="stroke:black;stroke-width:1" /><line x1="821.5" y1="100" x2="821.5" y2="70" style="stroke:black;stroke-width:1" /><line x1="827.0" y1="100" x2="827.0" y2="80" style="stroke:black;stroke-width:1" /><line x1="832.25" y1="100" x2="832.25" y2="70" style="stroke:black;stroke-width:1" /><line x1="837.5" y1="100" x2="837.5" y2="80" style="stroke:black;stroke-width:1" /><line x1="842.75" y1="100" x2="842.75" y2="70" style="stroke:black;stroke-width:1" /><line x1="847.75" y1="100" x2="847.75" y2="80" style="stroke:black;stroke-width:1" /><line x1="853.0" y1="100" x2="853.0" y2="70" style="stroke:black;stroke-width:1" /><line x1="857.75" y1="100" x2="857.75" y2="80" style="stroke:black;stroke-width:1" /><line x1="862.75" y1="100" x2="862.75" y2="40" style="stroke:black;stroke-width:1" /><text x="859" y="34" fill="black" font-size="18">4</text><line x1="872.5" y1="100" x2="872.5" y2="70" style="stroke:black;stroke-width:1" /><line x1="881.75" y1="100" x2="881.75" y2="70" style="stroke:black;stroke-width:1" /><line x1="891.0" y1="100" x2="891.0" y2="70" style="stroke:black;stroke-width:1" /><line x1="900.0" y1="100" x2="900.0" y2="70" style="stroke:black;stroke-width:1" /><line x1="908.75" y1="100" x2="908.75" y2="50" style="stroke:black;stroke-width:1" /><text x="902.8182584953925" y="45" fill="black" font-size="14">4.5</text><line x1="917.5" y1="100" x2="917.5" y2="70" style="stroke:black;stroke-width:1" /><line x1="925.75" y1="100" x2="925.75" y2="70" style="stroke:black;stroke-width:1" /><line x1="934.0" y1="100" x2="934.0" y2="70" style="stroke:black;stroke-width:1" /><line x1="942.0" y1="100" x2="942.0" y2="70" style="stroke:black;stroke-width:1" /><line x1="950.0" y1="100" x2="950.0" y2="40" style="stroke:black;stroke-width:1" /><text x="946" y="34" fill="black" font-size="18">5</text><line x1="957.75" y1="100" x2="957.75" y2="70" style="stroke:black;stroke-width:1" /><line x1="965.25" y1="100" x2="965.25" y2="70" style="stroke:black;stroke-width:1" /><line x1="972.75" y1="100" x2="972.75" y2="70" style="stroke:black;stroke-width:1" /><line x1="980.0" y1="100" x2="980.0" y2="70" style="stroke:black;stroke-width:1" /><line x1="987.25" y1="100" x2="987.25" y2="50" style="stroke:black;stroke-width:1" /><text x="981.2534166424025" y="45" fill="black" font-size="14">5.5</text><line x1="994.25" y1="100" x2="994.25" y2="70" style="stroke:black;stroke-width:1" /><line x1="1001.25" y1="100" x2="1001.25" y2="70" style="stroke:black;stroke-width:1" /><line x1="1008.0" y1="100" x2="1008.0" y2="70" style="stroke:black;stroke-width:1" /><line x1="1014.75" y1="100" x2="1014.75" y2="70" style="stroke:black;stroke-width:1" /><line x1="1021.25" y1="100" x2="1021.25" y2="40" style="stroke:black;stroke-width:1" /><text x="1017" y="34" fill="black" font-size="18">6</text><line x1="1027.75" y1="100" x2="1027.75" y2="70" style="stroke:black;stroke-width:1" /><line x1="1034.0" y1="100" x2="1034.0" y2="70" style="stroke:black;stroke-width:1" /><line x1="1040.25" y1="100" x2="1040.25" y2="70" style="stroke:black;stroke-width:1" /><line x1="1046.5" y1="100" x2="1046.5" y2="70" style="stroke:black;stroke-width:1" /><line x1="1052.5" y1="100" x2="1052.5" y2="50" style="stroke:black;stroke-width:1" /><text x="1046.5490170761532" y="45" fill="black" font-size="14">6.5</text><line x1="1058.5" y1="100" x2="1058.5" y2="70" style="stroke:black;stroke-width:1" /><line x1="1064.5" y1="100" x2="1064.5" y2="70" style="stroke:black;stroke-width:1" /><line x1="1070.25" y1="100" x2="1070.25" y2="70" style="stroke:black;stroke-width:1" /><line x1="1076.0" y1="100" x2="1076.0" y2="70" style="stroke:black;stroke-width:1" /><line x1="1081.5" y1="100" x2="1081.5" y2="40" style="stroke:black;stroke-width:1" /><text x="1078" y="34" fill="black" font-size="18">7</text><line x1="1087.0" y1="100" x2="1087.0" y2="70" style="stroke:black;stroke-width:1" /><line x1="1092.5" y1="100" x2="1092.5" y2="70" style="stroke:black;stroke-width:1" /><line x1="1098.0" y1="100" x2="1098.0" y2="70" style="stroke:black;stroke-width:1" /><line x1="1103.25" y1="100" x2="1103.25" y2="70" style="stroke:black;stroke-width:1" /><line x1="1108.5" y1="100" x2="1108.5" y2="50" style="stroke:black;stroke-width:1" /><text x="1102.4821331501132" y="45" fill="black" font-size="14">7.5</text><line x1="1113.75" y1="100" x2="1113.75" y2="70" style="stroke:black;stroke-width:1" /><line x1="1118.75" y1="100" x2="1118.75" y2="70" style="stroke:black;stroke-width:1" /><line x1="1123.75" y1="100" x2="1123.75" y2="70" style="stroke:black;stroke-width:1" /><line x1="1128.75" y1="100" x2="1128.75" y2="70" style="stroke:black;stroke-width:1" /><line x1="1133.75" y1="100" x2="1133.75" y2="40" style="stroke:black;stroke-width:1" /><text x="1130" y="34" fill="black" font-size="18">8</text><line x1="1138.5" y1="100" x2="1138.5" y2="70" style="stroke:black;stroke-width:1" /><line x1="1143.25" y1="100" x2="1143.25" y2="70" style="stroke:black;stroke-width:1" /><line x1="1148.0" y1="100" x2="1148.0" y2="70" style="stroke:black;stroke-width:1" /><line x1="1152.75" y1="100" x2="1152.75" y2="70" style="stroke:black;stroke-width:1" /><line x1="1157.5" y1="100" x2="1157.5" y2="50" style="stroke:black;stroke-width:1" /><text x="1151.4040292404466" y="45" fill="black" font-size="14">8.5</text><line x1="1162.0" y1="100" x2="1162.0" y2="70" style="stroke:black;stroke-width:1" /><line x1="1166.5" y1="100" x2="1166.5" y2="70" style="stroke:black;stroke-width:1" /><line x1="1171.0" y1="100" x2="1171.0" y2="70" style="stroke:black;stroke-width:1" /><line x1="1175.5" y1="100" x2="1175.5" y2="70" style="stroke:black;stroke-width:1" /><line x1="1179.75" y1="100" x2="1179.75" y2="40" style="stroke:black;stroke-width:1" /><text x="1176" y="34" fill="black" font-size="18">9</text><line x1="1184.0" y1="100" x2="1184.0" y2="70" style="stroke:black;stroke-width:1" /><line x1="1188.25" y1="100" x2="1188.25" y2="70" style="stroke:black;stroke-width:1" /><line x1="1192.5" y1="100" x2="1192.5" y2="70" style="stroke:black;stroke-width:1" /><line x1="1196.75" y1="100" x2="1196.75" y2="70" style="stroke:black;stroke-width:1" /><line x1="1201.0" y1="100" x2="1201.0" y2="50" style="stroke:black;stroke-width:1" /><text x="1194.878240857546" y="45" fill="black" font-size="14">9.5</text><line x1="1205.0" y1="100" x2="1205.0" y2="70" style="stroke:black;stroke-width:1" /><line x1="1209.0" y1="100" x2="1209.0" y2="70" style="stroke:black;stroke-width:1" /><line x1="1213.0" y1="100" x2="1213.0" y2="70" style="stroke:black;stroke-width:1" /><line x1="1217.0" y1="100" x2="1217.0" y2="70" style="stroke:black;stroke-width:1" /><line x1="1221.0" y1="100" x2="1221.0" y2="30" style="stroke:black;stroke-width:1" /><text x="1214.926996097583" y="20" fill="black" font-size="18">10</text></g><g transform="translate(0 120)"><text x="8.0" y="40" fill="black" font-size="24">D</text><text x="493.5" y="55" fill="black" font-size="16">&#960;</text><line x1="497.5" y1="0" x2="497.5" y2="40" style="stroke:black;stroke-width:1" /><text x="962.0" y="40" fill="black" font-size="16">x</text><line x1="50.0" y1="0" x2="50.0" y2="70" style="stroke:black;stroke-width:1" /><text x="46" y="95" fill="black" font-size="18">1</text><line x1="69.0" y1="0" x2="69.0" y2="20" style="stroke:black;stroke-width:1" /><line x1="87.25" y1="0" x2="87.25" y2="30" style="stroke:black;stroke-width:1" /><text x="81" y="40" fill="black" font-size="12">1.1</text><line x1="104.75" y1="0" x2="104.75" y2="20" style="stroke:black;stroke-width:1" /><line x1="121.25" y1="0" x2="121.25" y2="30" style="stroke:black;stroke-width:1" /><text x="115" y="40" fill="black" font-size="12">1.2</text><line x1="137.25" y1="0" x2="137.25" y2="20" style="stroke:black;stroke-width:1" /><line x1="152.5" y1="0" x2="152.5" y2="30" style="stroke:black;stroke-width:1" /><text x="147" y="40" fill="black" font-size="12">1.3</text><line x1="167.25" y1="0" x2="167.25" y2="20" style="stroke:black;stroke-width:1" /><line x1="181.5" y1="0" x2="181.5" y2="30" style="stroke:black;stroke-width:1" /><text x="176" y="40" fill="black" font-size="12">1.4</text><line x1="195.25" y1="0" x2="195.25" y2="20" style="stroke:black;stroke-width:1" /><line x1="208.5" y1="0" x2="208.5" y2="50" style="stroke:black;stroke-width:1" /><text x="202" y="65" fill="black" font-size="14">1.5</text><line x1="221.25" y1="0" x2="221.25" y2="20" style="stroke:black;stroke-width:1" /><line x1="233.75" y1="0" x2="233.75" y2="30" style="stroke:black;stroke-width:1" /><text x="228" y="40" fill="black" font-size="12">1.6</text><line x1="245.75" y1="0" x2="245.75" y2="20" style="stroke:black;stroke-width:1" /><line x1="257.5" y1="0" x2="257.5" y2="30" style="stroke:black;stroke-width:1" /><text x="251" y="40" fill="black" font-size="12">1.7</text><line x1="268.75" y1="0" x2="268.75" y2="20" style="stroke:black;stroke-width:1" /><line x1="279.75" y1="0" x2="279.75" y2="30" style="stroke:black;stroke-width:1" /><text x="274" y="40" fill="black" font-size="12">1.8</text><line x1="290.5" y1="0" x2="290.5" y2="20" style="stroke:black;stroke-width:1" /><line x1="301.0" y1="0" x2="301.0" y2="30" style="stroke:black;stroke-width:1" /><text x="295" y="40" fill="black" font-size="12">1.9</text><line x1="311.0" y1="0" x2="311.0" y2="20" style="stroke:black;stroke-width:1" /><line x1="321.0" y1="0" x2="321.0" y2="60" style="stroke:black;stroke-width:1" /><text x="317" y="80" fill="black" font-size="18">2</text><line x1="330.5" y1="0" x2="330.5" y2="20" style="stroke:black;stroke-width:1" /><line x1="340.0" y1="0" x2="340.0" y2="30" style="stroke:black;stroke-width:1" /><line x1="349.25" y1="0" x2="349.25" y2="20" style="stroke:black;stroke-width:1" /><line x1="358.25" y1="0" x2="358.25" y2="30" style="stroke:black;stroke-width:1" /><line x1="367.0" y1="0" x2="367.0" y2="20" style="stroke:black;stroke-width:1" /><line x1="375.5" y1="0" x2="375.5" y2="30" style="stroke:black;stroke-width:1" /><line x1="384.0" y1="0" x2="384.0" y2="20" style="stroke:black;stroke-width:1" /><line x1="392.25" y1="0" x2="392.25" y2="30" style="stroke:black;stroke-width:1" /><line x1="400.25" y1="0" x2="400.25" y2="20" style="stroke:black;stroke-width:1" /><line x1="408.25" y1="0" x2="408.25" y2="50" style="stroke:black;stroke-width:1" /><text x="402" y="65" fill="black" font-size="14">2.5</text><line x1="416.0" y1="0" x2="416.0" y2="20" style="stroke:black;stroke-width:1" /><line x1="423.5" y1="0" x2="423.5" y2="30" style="stroke:black;stroke-width:1" /><line x1="431.0" y1="0" x2="431.0" y2="20" style="stroke:black;stroke-width:1" /><line x1="438.25" y1="0" x2="438.25" y2="30" style="stroke:black;stroke-width:1" /><line x1="445.5" y1="0" x2="445.5" y2="20" style="stroke:black;stroke-width:1" /><line x1="452.5" y1="0" x2="452.5" y2="30" style="stroke:black;stroke-width:1" /><line x1="459.25" y1="0" x2="459.25" y2="20" style="stroke:black;stroke-width:1" /><line x1="466.25" y1="0" x2="466.25" y2="30" style="stroke:black;stroke-width:1" /><line x1="472.75" y1="0" x2="472.75" y2="20" style="stroke:black;stroke-width:1" /><line x1="479.5" y1="0" x2="479.5" y2="60" style="stroke:black;stroke-width:1" /><text x="475" y="80" fill="black" font-size="18">3</text><line x1="485.75" y1="0" x2="485.75" y2="20" style="stroke:black;stroke-width:1" /><line x1="492.25" y1="0" x2="492.25" y2="30" style="stroke:black;stroke-width:1" /><line x1="498.5" y1="0" x2="498.5" y2="20" style="stroke:black;stroke-width:1" /><line x1="504.75" y1="0" x2="504.75" y2="30" style="stroke:black;stroke-width:1" /><line x1="510.75" y1="0" x2="510.75" y2="20" style="stroke:black;stroke-width:1" /><line x1="516.75" y1="0" x2="516.75" y2="30" style="stroke:black;stroke-width:1" /><line x1="522.5" y1="0" x2="522.5" y2="20" style="stroke:black;stroke-width:1" /><line x1="528.25" y1="0" x2="528.25" y2="30" style="stroke:black;stroke-width:1" /><line x1="534.0" y1="0" x2="534.0" y2="20" style="stroke:black;stroke-width:1" /><line x1="539.75" y1="0" x2="539.75" y2="50" style="stroke:black;stroke-width:1" /><text x="534" y="65" fill="black" font-size="14">3.5</text><line x1="545.25" y1="0" x2="545.25" y2="20" style="stroke:black;stroke-width:1" /><line x1="550.75" y1="0" x2="550.75" y2="30" style="stroke:black;stroke-width:1" /><line x1="556.0" y1="0" x2="556.0" y2="20" style="stroke:black;stroke-width:1" /><line x1="561.5" y1="0" x2="561.5" y2="30" style="stroke:black;stroke-width:1" /><line x1="566.75" y1="0" x2="566.75" y2="20" style="stroke:black;stroke-width:1" /><line x1="571.75" y1="0" x2="571.75" y2="30" style="stroke:black;stroke-width:1" /><line x1="577.0" y1="0" x2="577.0" y2="20" style="stroke:black;stroke-width:1" /><line x1="582.0" y1="0" x2="582.0" y2="30" style="stroke:black;stroke-width:1" /><line x1="587.0" y1="0" x2="587.0" y2="20" style="stroke:black;stroke-width:1" /><line x1="591.75" y1="0" x2="591.75" y2="60" style="stroke:black;stroke-width:1" /><text x="588" y="80" fill="black" font-size="18">4</text><line x1="601.5" y1="0" x2="601.5" y2="30" style="stroke:black;stroke-width:1" /><line x1="611.0" y1="0" x2="611.0" y2="30" style="stroke:black;stroke-width:1" /><line x1="620.0" y1="0" x2="620.0" y2="30" style="stroke:black;stroke-width:1" /><line x1="629.0" y1="0" x2="629.0" y2="30" style="stroke:black;stroke-width:1" /><line x1="638.0" y1="0" x2="638.0" y2="50" style="stroke:black;stroke-width:1" /><text x="632" y="65" fill="black" font-size="14">4.5</text><line x1="646.5" y1="0" x2="646.5" y2="30" style="stroke:black;stroke-width:1" /><line x1="655.0" y1="0" x2="655.0" y2="30" style="stroke:black;stroke-width:1" /><line x1="663.0" y1="0" x2="663.0" y2="30" style="stroke:black;stroke-width:1" /><line x1="671.25" y1="0" x2="671.25" y2="30" style="stroke:black;stroke-width:1" /><line x1="679.0" y1="0" x2="679.0" y2="60" style="stroke:black;stroke-width:1" /><text x="675" y="80" fill="black" font-size="18">5</text><line x1="686.75" y1="0" x2="686.75" y2="30" style="stroke:black;stroke-width:1" /><line x1="694.5" y1="0" x2="694.5" y2="30" style="stroke:black;stroke-width:1" /><line x1="701.75" y1="0" x2="701.75" y2="30" style="stroke:black;stroke-width:1" /><line x1="709.25" y1="0" x2="709.25" y2="30" style="stroke:black;stroke-width:1" /><line x1="716.25" y1="0" x2="716.25" y2="50" style="stroke:black;stroke-width:1" /><text x="710" y="65" fill="black" font-size="14">5.5</text><line x1="723.25" y1="0" x2="723.25" y2="30" style="stroke:black;stroke-width:1" /><line x1="730.25" y1="0" x2="730.25" y2="30" style="stroke:black;stroke-width:1" /><line x1="737.0" y1="0" x2="737.0" y2="30" style="stroke:black;stroke-width:1" /><line x1="743.75" y1="0" x2="743.75" y2="30" style="stroke:black;stroke-width:1" /><line x1="750.25" y1="0" x2="750.25" y2="60" style="stroke:black;stroke-width:1" /><text x="746" y="80" fill="black" font-size="18">6</text><line x1="756.75" y1="0" x2="756.75" y2="30" style="stroke:black;stroke-width:1" /><line x1="763.25" y1="0" x2="763.25" y2="30" style="stroke:black;stroke-width:1" /><line x1="769.5" y1="0" x2="769.5" y2="30" style="stroke:black;stroke-width:1" /><line x1="775.5" y1="0" x2="775.5" y2="30" style="stroke:black;stroke-width:1" /><line x1="781.5" y1="0" x2="781.5" y2="50" style="stroke:black;stroke-width:1" /><text x="776" y="65" fill="black" font-size="14">6.5</text><line x1="787.5" y1="0" x2="787.5" y2="30" style="stroke:black;stroke-width:1" /><line x1="793.5" y1="0" x2="793.5" y2="30" style="stroke:black;stroke-width:1" /><line x1="799.25" y1="0" x2="799.25" y2="30" style="stroke:black;stroke-width:1" /><line x1="805.0" y1="0" x2="805.0" y2="30" style="stroke:black;stroke-width:1" /><line x1="810.5" y1="0" x2="810.5" y2="60" style="stroke:black;stroke-width:1" /><text x="807" y="80" fill="black" font-size="18">7</text><line x1="816.25" y1="0" x2="816.25" y2="30" style="stroke:black;stroke-width:1" /><line x1="821.5" y1="0" x2="821.5" y2="30" style="stroke:black;stroke-width:1" /><line x1="827.0" y1="0" x2="827.0" y2="30" style="stroke:black;stroke-width:1" /><line x1="832.25" y1="0" x2="832.25" y2="30" style="stroke:black;stroke-width:1" /><line x1="837.5" y1="0" x2="837.5" y2="50" style="stroke:black;stroke-width:1" /><text x="832" y="65" fill="black" font-size="14">7.5</text><line x1="842.75" y1="0" x2="842.75" y2="30" style="stroke:black;stroke-width:1" /><line x1="847.75" y1="0" x2="847.75" y2="30" style="stroke:black;stroke-width:1" /><line x1="853.0" y1="0" x2="853.0" y2="30" style="stroke:black;stroke-width:1" /><line x1="857.75" y1="0" x2="857.75" y2="30" style="stroke:black;stroke-width:1" /><line x1="862.75" y1="0" x2="862.75" y2="60" style="stroke:black;stroke-width:1" /><text x="859" y="80" fill="black" font-size="18">8</text><line x1="867.75" y1="0" x2="867.75" y2="30" style="stroke:black;stroke-width:1" /><line x1="872.5" y1="0" x2="872.5" y2="30" style="stroke:black;stroke-width:1" /><line x1="877.25" y1="0" x2="877.25" y2="30" style="stroke:black;stroke-width:1" /><line x1="881.75" y1="0" x2="881.75" y2="30" style="stroke:black;stroke-width:1" /><line x1="886.5" y1="0" x2="886.5" y2="50" style="stroke:black;stroke-width:1" /><text x="880" y="65" fill="black" font-size="14">8.5</text><line x1="891.0" y1="0" x2="891.0" y2="30" style="stroke:black;stroke-width:1" /><line x1="895.5" y1="0" x2="895.5" y2="30" style="stroke:black;stroke-width:1" /><line x1="900.0" y1="0" x2="900.0" y2="30" style="stroke:black;stroke-width:1" /><line x1="904.5" y1="0" x2="904.5" y2="30" style="stroke:black;stroke-width:1" /><line x1="908.75" y1="0" x2="908.75" y2="60" style="stroke:black;stroke-width:1" /><text x="905" y="80" fill="black" font-size="18">9</text><line x1="913.25" y1="0" x2="913.25" y2="30" style="stroke:black;stroke-width:1" /><line x1="917.5" y1="0" x2="917.5" y2="30" style="stroke:black;stroke-width:1" /><line x1="921.75" y1="0" x2="921.75" y2="30" style="stroke:black;stroke-width:1" /><line x1="925.75" y1="0" x2="925.75" y2="30" style="stroke:black;stroke-width:1" /><line x1="930.0" y1="0" x2="930.0" y2="50" style="stroke:black;stroke-width:1" /><text x="924" y="65" fill="black" font-size="14">9.5</text><line x1="934.0" y1="0" x2="934.0" y2="30" style="stroke:black;stroke-width:1" /><line x1="938.0" y1="0" x2="938.0" y2="30" style="stroke:black;stroke-width:1" /><line x1="942.0" y1="0" x2="942.0" y2="30" style="stroke:black;stroke-width:1" /><line x1="946.0" y1="0" x2="946.0" y2="30" style="stroke:black;stroke-width:1" /><line x1="950.0" y1="0" x2="950.0" y2="70" style="stroke:black;stroke-width:1" /><text x="944" y="95" fill="black" font-size="18">10</text></g></svg>